# xmcd CD database file
#
# Track frame offsets:
#	150
#	12773
#	26510
#	38611
#	60845
#	77587
#	91955
#	107381
#	129126
#	149081
#	164303
#
# Disc length: 2369 seconds
#
# Revision: 0
# Processed by: cddbd v1.5PL3 Copyright (c) Steve Scherf et al.
# Submitted via: CDex 1.51
#
DISCID=75093f0b
DTITLE=Robin Lacy and DeZydeco - Have No Fear
DYEAR=2003
DGENRE=Blues
TTITLE0=Rockin' Zydeco
TTITLE1=Choo-Choo Baby
TTITLE2=What I Gotta Do
TTITLE3=Decatur Street
TTITLE4=VooDoo
TTITLE5=They Call It Zydeco
TTITLE6=How's It Gonna Be
TTITLE7=Oh, Daddy
TTITLE8=Have No Fear
TTITLE9=Real Good Time
TTITLE10=Stomp
EXTD=YEAR: 2003
EXTT0=
EXTT1=
EXTT2=
EXTT3=
EXTT4=
EXTT5=
EXTT6=
EXTT7=
EXTT8=
EXTT9=
EXTT10=
PLAYORDER=
